Coordinates
version=1
nRows=14
nColumns=24
inDegrees=yes

Units are S.I. units (second, meters, Newtons, ...)
Angles are in degrees.

endheader
time	pelvis_tilt	pelvis_list	pelvis_rotation	pelvis_tx	pelvis_ty	pelvis_tz	hip_flexion_r	hip_adduction_r	hip_rotation_r	knee_angle_r	ankle_angle_r	subtalar_angle_r	mtp_angle_r	hip_flexion_l	hip_adduction_l	hip_rotation_l	knee_angle_l	ankle_angle_l	subtalar_angle_l	mtp_angle_l	lumbar_extension	lumbar_bending	lumbar_rotation
      0.58400000	     -5.30439773	      2.88469310	      6.44662109	     -0.83393020	      0.99955560	      0.26425616	     30.05150155	     -1.76560889	     -7.66894302	      2.87349723	      2.88383749	     -1.10524869	      1.71368183	    -11.21861601	      7.31292318	      9.67555437	     -6.19405269	     13.58754694	     -8.13422841	     -5.12471703	     -1.37920838	     -6.70310163	     -7.66991920
      0.58816667	     -5.25001719	      2.72146592	      6.44080612	     -0.82782808	      0.99896179	      0.26423252	     30.14219094	     -1.52991013	     -7.50764780	      1.95908837	      3.04832647	     -1.42876875	      1.73242473	    -11.45848195	      7.12269636	      9.62431858	     -6.53767057	     13.66042157	     -8.13865353	     -5.13339757	     -1.33487481	     -6.46784995	     -7.68012852
      0.59233333	     -5.20621712	      2.55840453	      6.41525869	     -0.82165049	      0.99835016	      0.26428307	     30.21358860	     -1.27406548	     -7.17942809	      1.08428308	      3.03521641	     -2.04687891	      1.79493552	    -11.65190165	      6.92527193	      9.35509249	     -6.96185683	     13.85348620	     -7.75702589	     -5.15751355	     -1.28605030	     -6.26432937	     -7.67429089
      0.59650000	     -5.14722143	      2.37944610	      6.40394760	     -0.81540655	      0.99780021	      0.26430769	     30.25784265	     -1.00845511	     -6.90910968	      0.20287628	      3.01025577	     -2.59119665	      1.86425723	    -11.87131646	      6.71079100	      9.17410959	     -7.36531394	     13.97816390	     -7.52671791	     -5.16857059	     -1.23623355	     -6.02066864	     -7.68671895
      0.60066667	     -5.09369065	      2.20317358	      6.39162002	     -0.80910473	      0.99726864	      0.26435545	     30.28947124	     -0.73906942	     -6.60452107	     -0.65413937	      2.90365211	     -3.21172147	      1.93434332	    -12.08126342	      6.49937384	      8.99229070	     -7.78237982	     14.05976917	     -7.32592757	     -5.16125615	     -1.17402710	     -5.78176530	     -7.70109047
      0.60483333	     -5.03873512	      2.00915486	      6.37408982	     -0.80272096	      0.99676608	      0.26441932	     30.30078303	     -0.44484652	     -6.26654689	     -1.48226794	      2.74293782	     -3.85586326	      1.99557653	    -12.30162936	      6.26829639	      8.82551906	     -8.17617330	     14.10320208	     -7.13290095	     -5.14212887	     -1.09273723	     -5.52114071	     -7.72613395
      0.60900000	     -4.96380229	      1.83113221	      6.37958623	     -0.79632607	      0.99633099	      0.26448044	     30.26286648	     -0.16682925	     -5.91793204	     -2.24673428	      2.41339657	     -4.65820495	      2.07617860	    -12.51002827	      6.04537916	      8.61169037	     -8.64293602	     14.14281598	     -6.89874491	     -5.09943636	     -1.04630689	     -5.29186020	     -7.74477763
      0.61316667	     -4.91961538	      1.63926480	      6.38345466	     -0.78985595	      0.99588534	      0.26457473	     30.23964497	      0.12937172	     -5.55536215	     -2.97082597	      2.02390701	     -5.46283624	      2.16669728	    -12.68477034	      5.80783992	      8.40126078	     -9.11369804	     14.16011406	     -6.65349788	     -5.03716210	     -0.94766608	     -5.04824431	     -7.77840138
      0.61733333	     -4.86842858	      1.44243098	      6.38185551	     -0.78332354	      0.99548648	      0.26469843	     30.19022075	      0.43874362	     -5.18235288	     -3.64623679	      1.55134244	     -6.28439918	      2.26150373	    -12.86751361	      5.56318757	      8.20654897	     -9.57723215	     14.12074219	     -6.42930918	     -4.95619821	     -0.85102964	     -4.79810220	     -7.81214779
      0.62150000	     -4.80611747	      1.24799332	      6.39811900	     -0.77676461	      0.99514137	      0.26481920	     30.10790312	      0.74391157	     -4.81885421	     -4.26753180	      0.97731978	     -7.17714358	      2.37727369	    -13.04115311	      5.31358005	      7.99705819	    -10.08644110	     14.07088956	     -6.19361992	     -4.84390198	     -0.76478756	     -4.55546361	     -7.84737294
      0.62566667	     -4.76187780	      1.04849184	      6.41631890	     -0.77014934	      0.99481179	      0.26496404	     30.02798057	      1.05553274	     -4.45988723	     -4.84040800	      0.31593857	     -8.07625064	      2.50300633	    -13.18900344	      5.05563271	      7.78252428	    -10.60185767	     13.97857364	     -5.95076345	     -4.70798603	     -0.64563430	     -4.30983473	     -7.89039524
      0.62983333	     -4.72164055	      0.84431782	      6.44223041	     -0.76348856	      0.99452132	      0.26510876	     29.93605961	      1.36898700	     -4.11936167	     -5.36856132	     -0.42514901	     -8.97802888	      2.64631235	    -13.31427579	      4.78930957	      7.56318645	    -11.15192324	     13.85638109	     -5.69542388	     -4.54006374	     -0.51409525	     -4.06311755	     -7.93650189
      0.63400000	     -4.69231194	      0.63794242	      6.47619840	     -0.75678916	      0.99425804	      0.26527254	     29.84313980	      1.68172120	     -3.80034816	     -5.85801475	     -1.23405273	     -9.87314949	      2.79994087	    -13.42060786	      4.51627632	      7.36658929	    -11.71391738	     13.69350978	     -5.45021709	     -4.34576435	     -0.36539944	     -3.81800157	     -7.98869659
      0.63816667	     -4.62999420	      0.44176694	      6.48690618	     -0.75005794	      0.99407594	      0.26550118	     29.70821449	      1.99931577	     -3.47297119	     -6.32405503	     -2.07733855	    -10.71267859	      3.22984762	    -13.53374301	      4.24018660	      7.02477816	    -12.31667739	     13.47909865	     -5.03360906	     -3.79167044	     -0.26018985	     -3.59527096	     -8.01966474
